<svg width="12" height="12" viewBox="0 0 12 12" fill="none" xmlns="http://www.w3.org/2000/svg">
<path fill-rule="evenodd" clip-rule="evenodd" d="M5.98934 3.43343C6.02468 3.398 6.06666 3.36989 6.11288 3.35071C6.1591 3.33153 6.20865 3.32166 6.2587 3.32166C6.30874 3.32166 6.35829 3.33153 6.40451 3.35071C6.45073 3.36989 6.49272 3.398 6.52806 3.43343L8.81077 5.71614C8.8462 5.75148 8.87431 5.79347 8.89349 5.83969C8.91267 5.88591 8.92254 5.93546 8.92254 5.9855C8.92254 6.03555 8.91267 6.0851 8.89349 6.13132C8.87431 6.17754 8.8462 6.21952 8.81077 6.25486L6.52806 8.53758C6.45662 8.60902 6.35973 8.64915 6.2587 8.64915C6.15767 8.64915 6.06077 8.60902 5.98934 8.53758C5.9179 8.46614 5.87776 8.36925 5.87776 8.26822C5.87776 8.16719 5.9179 8.0703 5.98934 7.99886L8.00345 5.9855L5.98934 3.97215C5.95391 3.93681 5.9258 3.89482 5.90662 3.8486C5.88744 3.80238 5.87756 3.75283 5.87756 3.70279C5.87756 3.65275 5.88744 3.60319 5.90662 3.55697C5.9258 3.51075 5.95391 3.46877 5.98934 3.43343Z" fill="white"/>
<path fill-rule="evenodd" clip-rule="evenodd" d="M2.83459 5.98556C2.83459 5.88465 2.87468 5.78788 2.94603 5.71653C3.01738 5.64519 3.11414 5.6051 3.21505 5.6051L8.16093 5.6051C8.26183 5.6051 8.3586 5.64519 8.42995 5.71653C8.5013 5.78788 8.54138 5.88465 8.54138 5.98556C8.54138 6.08646 8.5013 6.18323 8.42995 6.25458C8.3586 6.32592 8.26183 6.36601 8.16093 6.36601L3.21505 6.36601C3.11414 6.36601 3.01738 6.32592 2.94603 6.25458C2.87468 6.18323 2.83459 6.08646 2.83459 5.98556Z" fill="white"/>
</svg>
