<svg width="24" height="24" viewBox="0 0 24 24" fill="none" xmlns="http://www.w3.org/2000/svg">
<path d="M14.1 14.1L19 19L14.1 14.1ZM10.25 15.5C10.9394 15.5 11.6221 15.3642 12.2591 15.1004C12.896 14.8365 13.4748 14.4498 13.9623 13.9623C14.4498 13.4748 14.8365 12.896 15.1004 12.2591C15.3642 11.6221 15.5 10.9394 15.5 10.25C15.5 9.56056 15.3642 8.87787 15.1004 8.24091C14.8365 7.60395 14.4498 7.0252 13.9623 6.53769C13.4748 6.05018 12.896 5.66347 12.2591 5.39963C11.6221 5.1358 10.9394 5 10.25 5C8.85761 5 7.52226 5.55312 6.53769 6.53769C5.55312 7.52226 5 8.85761 5 10.25C5 11.6424 5.55312 12.9777 6.53769 13.9623C7.52226 14.9469 8.85761 15.5 10.25 15.5V15.5Z" stroke="#6C6D6E" stroke-width="2"/>
</svg>
