<svg width="18" height="13" viewBox="0 0 18 13" fill="none" xmlns="http://www.w3.org/2000/svg">
<path d="M15.6665 6.31016H17.3332V7.94095H15.6665C14.5165 7.94095 13.3832 7.65556 12.3332 7.12555C10.2498 8.18556 7.74984 8.18556 5.6665 7.12555C4.6165 7.65556 3.47484 7.94095 2.33317 7.94095H0.666504V6.31016H2.33317C3.4915 6.31016 4.64984 5.92692 5.6665 5.22568C7.69984 6.62001 10.2998 6.62001 12.3332 5.22568C13.3498 5.92692 14.5082 6.31016 15.6665 6.31016ZM15.6665 1.41779H17.3332V3.04858H15.6665C14.5165 3.04858 13.3832 2.76319 12.3332 2.23318C10.2498 3.2932 7.74984 3.2932 5.6665 2.23318C4.6165 2.76319 3.47484 3.04858 2.33317 3.04858H0.666504V1.41779H2.33317C3.4915 1.41779 4.64984 1.03455 5.6665 0.333313C7.69984 1.72764 10.2998 1.72764 12.3332 0.333313C13.3498 1.03455 14.5082 1.41779 15.6665 1.41779ZM15.6665 11.2025H17.3332V12.8333H15.6665C14.5165 12.8333 13.3832 12.5479 12.3332 12.0179C10.2498 13.0779 7.74984 13.0779 5.6665 12.0179C4.6165 12.5479 3.47484 12.8333 2.33317 12.8333H0.666504V11.2025H2.33317C3.4915 11.2025 4.64984 10.8193 5.6665 10.118C7.69984 11.5124 10.2998 11.5124 12.3332 10.118C13.3498 10.8193 14.5082 11.2025 15.6665 11.2025Z" fill="#4498C8"/>
</svg>
