<svg width="16" height="20" viewBox="0 0 16 20" fill="none" xmlns="http://www.w3.org/2000/svg">
<path d="M13.6768 5.43356C13.5961 5.3836 13.5296 5.31365 13.4838 5.23044C13.4379 5.14724 13.4142 5.0536 13.4149 4.95854C13.1523 2.16342 10.8365 0 7.99545 0C5.15438 0 2.83946 2.16176 2.57596 4.95771C2.57654 5.05264 2.55286 5.14614 2.50717 5.2293C2.46148 5.31245 2.39531 5.38248 2.31496 5.43273C1.59693 5.93696 1.01133 6.60798 0.60821 7.38846C0.205086 8.16894 -0.00357907 9.03567 4.6449e-05 9.91458C4.6449e-05 12.4464 1.73478 14.5589 4.0497 15.1906C4.47112 15.2965 4.83935 15.3481 4.99728 15.2415C5.31231 15.0848 5.629 13.7147 5.47107 13.3972C5.36467 13.2397 4.99728 13.0814 4.62822 12.9755C3.94829 12.7887 3.34836 12.3832 2.92067 11.8213C2.49297 11.2594 2.26119 10.5722 2.26094 9.86541C2.26094 9.01954 2.57596 8.28201 3.10378 7.69865C3.31325 7.43614 3.62744 7.22613 3.89177 7.06779C4.47029 6.75112 4.83935 6.11609 4.83935 5.43106C4.83935 5.05604 4.89171 4.7427 4.99645 4.43018C5.20938 3.78704 5.61837 3.22717 6.16571 2.82958C6.71305 2.43199 7.37109 2.21676 8.04699 2.21426C8.72313 2.21654 9.38149 2.43165 9.92914 2.82925C10.4768 3.22685 10.8861 3.78684 11.0992 4.43018C11.2039 4.7427 11.2563 5.05604 11.2563 5.43106C11.2563 6.10776 11.573 6.74612 12.2055 7.05863C12.5206 7.20863 12.7824 7.42198 12.9919 7.68532C13.538 8.27279 13.8395 9.04734 13.8347 9.85041C13.8372 10.2736 13.756 10.6931 13.5957 11.0846C13.4353 11.476 13.1991 11.8317 12.9007 12.131C12.6022 12.4303 12.2475 12.6672 11.8571 12.8281C11.4667 12.9889 11.0483 13.0705 10.6262 13.068C9.6517 13.0685 8.71703 13.456 8.02677 14.1457C7.33651 14.8354 6.94688 15.7711 6.94314 16.7482V18.8508C6.94314 19.2641 6.99634 19.6892 7.10107 19.8025C7.3629 20.0658 8.7319 20.0658 8.99457 19.8025C9.10761 19.6892 9.15665 19.2766 9.15665 18.8508V16.6982C9.15665 15.9098 9.79336 15.2706 10.5805 15.2706C11.2924 15.2712 11.9973 15.131 12.6551 14.8581C13.3129 14.5853 13.9105 14.1851 14.4139 13.6804C14.9172 13.1757 15.3164 12.5765 15.5886 11.9171C15.8607 11.2576 16.0005 10.5508 16 9.83708C15.9999 8.96639 15.7897 8.10866 15.3873 7.33708C14.9849 6.5655 14.4023 5.90298 13.6892 5.40606L13.6768 5.43356Z" fill="#3B795F"/>
</svg>
