<svg width="18" height="18" viewBox="0 0 18 18" fill="none" xmlns="http://www.w3.org/2000/svg">
<path d="M2.31189 4.52573C0.835513 6.00288 0.00424308 8.00496 1.61984e-05 10.0938C-0.00421068 12.1826 0.81895 14.188 2.28933 15.6712C3.94702 11.8357 6.90153 8.63194 10.589 6.72548C7.40624 9.41953 5.25774 13.1359 4.51086 17.2392C7.44282 18.6267 11.0514 18.1191 13.4759 15.6937C16.8476 12.3208 17.7949 3.12691 17.9979 0.600008C18.0049 0.519717 17.9943 0.438852 17.9668 0.363103C17.9393 0.287355 17.8955 0.218563 17.8385 0.161569C17.7815 0.104575 17.7127 0.060763 17.637 0.0332161C17.5613 0.00566926 17.4805 -0.00494315 17.4002 0.00212543C14.8742 0.20518 5.68364 1.15277 2.31189 4.52573Z" fill="#73A861"/>
</svg>
