<svg width="20" height="22" viewBox="0 0 20 22" fill="none" xmlns="http://www.w3.org/2000/svg">
<path d="M19 22C17.97 22 16.94 21.75 16 21.25C14.11 22.25 11.89 22.25 10 21.25C8.11 22.25 5.89 22.25 4 21.25C3.05 21.75 2.03 22 1 22H0V20H1C2.04 20 3.08 19.65 4 19C5.83 20.3 8.17 20.3 10 19C11.83 20.3 14.17 20.3 16 19C16.91 19.65 17.96 20 19 20H20V22H19ZM15 0.5C13.9 0.5 13 1.4 13 2.5C13 3.6 13.9 4.5 15 4.5C16.1 4.5 17 3.6 17 2.5C17 1.4 16.1 0.5 15 0.5ZM12.43 7.48L10.18 9L14 12V15.84C14.53 16.22 15.03 16.62 15.49 17.01C14.81 17.59 13.94 18 13 18C11.8 18 10.73 17.34 10 16.5C9.27 17.34 8.2 18 7 18C6.67 18 6.35 17.95 6.04 17.86C3.19 15.9 1 13.72 1 12.28C1 11.25 2.01 11 2.85 11C3.83 11 5.13 11.31 6.55 11.83L5.83 7.59L8.95 5.49L6.95 5.12L4.13 7.05L3 5.4L6.5 3L12.05 4.03C12.5 4.12 12.98 4.4 13.27 4.92L14.15 6.47C14.5873 7.23812 15.22 7.87682 15.9841 8.32119C16.7481 8.76555 17.6161 8.99976 18.5 9V11C17.2682 10.9983 16.0585 10.6721 14.9929 10.0541C13.9273 9.43618 13.0433 8.54832 12.43 7.48ZM8.3 10.1L8.74 12.75C9.66 13.17 11.22 14.02 12 14.5V13L8.3 10.1Z" fill="#D96749"/>
</svg>
