<svg width="24" height="24" viewBox="0 0 24 24" fill="none" xmlns="http://www.w3.org/2000/svg">
<path d="M12 20H2V18H7.75C7.38839 16.6184 6.66498 15.3583 5.65429 14.3494C4.6436 13.3404 3.38218 12.6192 2 12.26C2.64 12.1 3.31 12 4 12C8.42 12 12 15.58 12 20ZM22 12.26C21.36 12.1 20.69 12 20 12C17.07 12 14.52 13.58 13.12 15.93C13.6975 17.2089 13.9941 18.5968 13.99 20H21.99V18H16.24C16.6052 16.6186 17.3311 15.3591 18.3432 14.3505C19.3553 13.3419 20.6173 12.6204 22 12.26ZM15.64 11.02C16.4146 8.9479 17.8526 7.19003 19.73 6.02C15.44 6.16 12 9.67 12 14V14.02C12.95 12.75 14.2 11.72 15.64 11.02ZM11.42 8.85C11.0059 7.76225 10.3735 6.77079 9.56176 5.93669C8.75001 5.10258 7.7761 4.44349 6.7 4C8.14 5.86 9 8.18 9 10.71C9 10.92 8.97 11.12 8.96 11.32C9.39 11.56 9.79 11.84 10.18 12.14C10.3939 10.9782 10.8139 9.86399 11.42 8.85Z" fill="white" fill-opacity="0.7"/>
</svg>
